<mxfile host="app.diagrams.net" agent="Mozilla/5.0 (Windows NT 10.0; Win64; x64) AppleWebKit/537.36 (KHTML, like Gecko) Chrome/138.0.0.0 Safari/537.36 Edg/138.0.0.0" version="26.2.13">
  <diagram name="第 1 页" id="c7KnsM-MdCK46-d7kCr8">
    <mxGraphModel dx="2703" dy="794" grid="1" gridSize="10" guides="1" tooltips="1" connect="1" arrows="1" fold="1" page="1" pageScale="1" pageWidth="827" pageHeight="1169" math="0" shadow="0">
      <root>
        <mxCell id="0" />
        <mxCell id="1" parent="0" />
        <mxCell id="qCyjkw_8tzbK9dmdXJJI-6" value="" style="swimlane;startSize=0;fillColor=#B3FF66;" vertex="1" parent="1">
          <mxGeometry x="-220" y="270" width="480" height="310" as="geometry" />
        </mxCell>
        <mxCell id="qCyjkw_8tzbK9dmdXJJI-9" value="&lt;font style=&quot;font-size: 14px;&quot;&gt;&lt;b&gt;Windows开发机（团队成员）&lt;/b&gt;&lt;/font&gt;" style="text;html=1;align=center;verticalAlign=middle;resizable=0;points=[];autosize=1;strokeColor=none;fillColor=none;" vertex="1" parent="qCyjkw_8tzbK9dmdXJJI-6">
          <mxGeometry x="160" y="10" width="210" height="30" as="geometry" />
        </mxCell>
        <mxCell id="qCyjkw_8tzbK9dmdXJJI-48" style="edgeStyle=orthogonalEdgeStyle;curved=1;rounded=0;orthogonalLoop=1;jettySize=auto;html=1;exitX=0.5;exitY=1;exitDx=0;exitDy=0;" edge="1" parent="qCyjkw_8tzbK9dmdXJJI-6" source="qCyjkw_8tzbK9dmdXJJI-7">
          <mxGeometry relative="1" as="geometry">
            <mxPoint x="460" y="515" as="targetPoint" />
            <Array as="points">
              <mxPoint x="20" y="240" />
              <mxPoint x="20" y="510" />
            </Array>
          </mxGeometry>
        </mxCell>
        <mxCell id="qCyjkw_8tzbK9dmdXJJI-50" value="&lt;font style=&quot;font-size: 14px;&quot;&gt;dev containers插件&lt;/font&gt;" style="edgeLabel;html=1;align=center;verticalAlign=middle;resizable=0;points=[];" vertex="1" connectable="0" parent="qCyjkw_8tzbK9dmdXJJI-48">
          <mxGeometry x="-0.6805" y="9" relative="1" as="geometry">
            <mxPoint x="-9" y="107" as="offset" />
          </mxGeometry>
        </mxCell>
        <mxCell id="qCyjkw_8tzbK9dmdXJJI-68" style="edgeStyle=orthogonalEdgeStyle;curved=1;rounded=0;orthogonalLoop=1;jettySize=auto;html=1;exitX=0.5;exitY=1;exitDx=0;exitDy=0;" edge="1" parent="qCyjkw_8tzbK9dmdXJJI-6" source="qCyjkw_8tzbK9dmdXJJI-7">
          <mxGeometry relative="1" as="geometry">
            <mxPoint x="460" y="525" as="targetPoint" />
            <Array as="points">
              <mxPoint x="100" y="415" />
              <mxPoint x="461" y="415" />
            </Array>
          </mxGeometry>
        </mxCell>
        <mxCell id="qCyjkw_8tzbK9dmdXJJI-69" value="Text" style="edgeLabel;html=1;align=center;verticalAlign=middle;resizable=0;points=[];" vertex="1" connectable="0" parent="qCyjkw_8tzbK9dmdXJJI-68">
          <mxGeometry x="-0.4224" y="-57" relative="1" as="geometry">
            <mxPoint as="offset" />
          </mxGeometry>
        </mxCell>
        <mxCell id="qCyjkw_8tzbK9dmdXJJI-70" value="&lt;font style=&quot;font-size: 14px;&quot;&gt;自定义脚本&lt;/font&gt;" style="edgeLabel;html=1;align=center;verticalAlign=middle;resizable=0;points=[];" vertex="1" connectable="0" parent="qCyjkw_8tzbK9dmdXJJI-68">
          <mxGeometry x="-0.0132" y="6" relative="1" as="geometry">
            <mxPoint as="offset" />
          </mxGeometry>
        </mxCell>
        <mxCell id="qCyjkw_8tzbK9dmdXJJI-7" value="cusor编辑器" style="rounded=0;whiteSpace=wrap;html=1;fillColor=#B3FF66;" vertex="1" parent="qCyjkw_8tzbK9dmdXJJI-6">
          <mxGeometry x="40" y="145" width="120" height="60" as="geometry" />
        </mxCell>
        <mxCell id="qCyjkw_8tzbK9dmdXJJI-8" value="Docker Desktop" style="rounded=0;whiteSpace=wrap;html=1;" vertex="1" parent="qCyjkw_8tzbK9dmdXJJI-6">
          <mxGeometry x="204.5" y="145" width="115" height="60" as="geometry" />
        </mxCell>
        <mxCell id="qCyjkw_8tzbK9dmdXJJI-23" style="edgeStyle=orthogonalEdgeStyle;curved=1;rounded=0;orthogonalLoop=1;jettySize=auto;html=1;entryX=0.5;entryY=0;entryDx=0;entryDy=0;exitX=0.5;exitY=1;exitDx=0;exitDy=0;" edge="1" parent="qCyjkw_8tzbK9dmdXJJI-6" source="qCyjkw_8tzbK9dmdXJJI-10" target="qCyjkw_8tzbK9dmdXJJI-7">
          <mxGeometry relative="1" as="geometry" />
        </mxCell>
        <mxCell id="qCyjkw_8tzbK9dmdXJJI-24" style="edgeStyle=orthogonalEdgeStyle;curved=1;rounded=0;orthogonalLoop=1;jettySize=auto;html=1;entryX=0.5;entryY=0;entryDx=0;entryDy=0;" edge="1" parent="qCyjkw_8tzbK9dmdXJJI-6" source="qCyjkw_8tzbK9dmdXJJI-10" target="qCyjkw_8tzbK9dmdXJJI-8">
          <mxGeometry relative="1" as="geometry">
            <Array as="points">
              <mxPoint x="257" y="130" />
              <mxPoint x="262" y="130" />
            </Array>
          </mxGeometry>
        </mxCell>
        <mxCell id="qCyjkw_8tzbK9dmdXJJI-10" value="一键装机脚本" style="rounded=0;whiteSpace=wrap;html=1;fillColor=#FF9999;" vertex="1" parent="qCyjkw_8tzbK9dmdXJJI-6">
          <mxGeometry x="193.5" y="50" width="126" height="40" as="geometry" />
        </mxCell>
        <mxCell id="qCyjkw_8tzbK9dmdXJJI-52" style="edgeStyle=orthogonalEdgeStyle;curved=1;rounded=0;orthogonalLoop=1;jettySize=auto;html=1;" edge="1" parent="qCyjkw_8tzbK9dmdXJJI-6" source="qCyjkw_8tzbK9dmdXJJI-46" target="qCyjkw_8tzbK9dmdXJJI-7">
          <mxGeometry relative="1" as="geometry" />
        </mxCell>
        <mxCell id="qCyjkw_8tzbK9dmdXJJI-53" style="edgeStyle=orthogonalEdgeStyle;curved=1;rounded=0;orthogonalLoop=1;jettySize=auto;html=1;entryX=0.5;entryY=1;entryDx=0;entryDy=0;" edge="1" parent="qCyjkw_8tzbK9dmdXJJI-6" source="qCyjkw_8tzbK9dmdXJJI-46" target="qCyjkw_8tzbK9dmdXJJI-8">
          <mxGeometry relative="1" as="geometry" />
        </mxCell>
        <mxCell id="qCyjkw_8tzbK9dmdXJJI-46" value="一键卸载脚本" style="rounded=0;whiteSpace=wrap;html=1;fillColor=#FF9999;" vertex="1" parent="qCyjkw_8tzbK9dmdXJJI-6">
          <mxGeometry x="300" y="265" width="126" height="40" as="geometry" />
        </mxCell>
        <mxCell id="qCyjkw_8tzbK9dmdXJJI-76" value="windows主机" style="rounded=0;whiteSpace=wrap;html=1;" vertex="1" parent="qCyjkw_8tzbK9dmdXJJI-6">
          <mxGeometry x="340" y="50" width="120" height="45" as="geometry" />
        </mxCell>
        <mxCell id="qCyjkw_8tzbK9dmdXJJI-11" value="" style="swimlane;startSize=0;" vertex="1" parent="1">
          <mxGeometry x="-220" y="130" width="1250" height="120" as="geometry" />
        </mxCell>
        <mxCell id="qCyjkw_8tzbK9dmdXJJI-12" value="&lt;font style=&quot;font-size: 14px;&quot; face=&quot;Comic Sans MS&quot;&gt;&lt;b&gt;领导层决策&lt;/b&gt;&lt;/font&gt;" style="text;html=1;align=center;verticalAlign=middle;resizable=0;points=[];autosize=1;strokeColor=none;fillColor=none;" vertex="1" parent="qCyjkw_8tzbK9dmdXJJI-11">
          <mxGeometry x="575" y="10" width="90" height="30" as="geometry" />
        </mxCell>
        <mxCell id="qCyjkw_8tzbK9dmdXJJI-88" value="实施时间安排" style="whiteSpace=wrap;html=1;" vertex="1" parent="qCyjkw_8tzbK9dmdXJJI-11">
          <mxGeometry x="970" y="70" width="100" height="37" as="geometry" />
        </mxCell>
        <mxCell id="qCyjkw_8tzbK9dmdXJJI-89" value="资源分配决策" style="whiteSpace=wrap;html=1;" vertex="1" parent="qCyjkw_8tzbK9dmdXJJI-11">
          <mxGeometry x="1100" y="70" width="100" height="37" as="geometry" />
        </mxCell>
        <mxCell id="qCyjkw_8tzbK9dmdXJJI-100" value="技术方案审批" style="whiteSpace=wrap;html=1;fillColor=#B3B3B3;" vertex="1" parent="qCyjkw_8tzbK9dmdXJJI-11">
          <mxGeometry x="100" y="70" width="100" height="37" as="geometry" />
        </mxCell>
        <mxCell id="qCyjkw_8tzbK9dmdXJJI-25" value="" style="swimlane;startSize=0;fillColor=#000000;" vertex="1" parent="1">
          <mxGeometry x="-220" y="670" width="1180" height="240" as="geometry" />
        </mxCell>
        <mxCell id="qCyjkw_8tzbK9dmdXJJI-26" value="&lt;font style=&quot;font-size: 14px;&quot;&gt;&lt;b&gt;Docker统一环境&lt;/b&gt;&lt;/font&gt;" style="text;html=1;align=center;verticalAlign=middle;resizable=0;points=[];autosize=1;strokeColor=none;fillColor=none;" vertex="1" parent="qCyjkw_8tzbK9dmdXJJI-25">
          <mxGeometry x="500" width="130" height="30" as="geometry" />
        </mxCell>
        <mxCell id="qCyjkw_8tzbK9dmdXJJI-28" value="JDK8+Maven" style="whiteSpace=wrap;html=1;" vertex="1" parent="qCyjkw_8tzbK9dmdXJJI-25">
          <mxGeometry x="10" y="170" width="90" height="40" as="geometry" />
        </mxCell>
        <mxCell id="qCyjkw_8tzbK9dmdXJJI-27" value="python + pip" style="whiteSpace=wrap;html=1;" vertex="1" parent="qCyjkw_8tzbK9dmdXJJI-25">
          <mxGeometry x="120" y="170" width="90" height="40" as="geometry" />
        </mxCell>
        <mxCell id="qCyjkw_8tzbK9dmdXJJI-43" style="edgeStyle=orthogonalEdgeStyle;curved=1;rounded=0;orthogonalLoop=1;jettySize=auto;html=1;exitX=0;exitY=0.5;exitDx=0;exitDy=0;entryX=0.5;entryY=0;entryDx=0;entryDy=0;" edge="1" parent="qCyjkw_8tzbK9dmdXJJI-25" source="qCyjkw_8tzbK9dmdXJJI-29" target="qCyjkw_8tzbK9dmdXJJI-30">
          <mxGeometry relative="1" as="geometry" />
        </mxCell>
        <mxCell id="qCyjkw_8tzbK9dmdXJJI-45" style="edgeStyle=orthogonalEdgeStyle;curved=1;rounded=0;orthogonalLoop=1;jettySize=auto;html=1;exitX=1;exitY=0.5;exitDx=0;exitDy=0;entryX=0.5;entryY=0;entryDx=0;entryDy=0;" edge="1" parent="qCyjkw_8tzbK9dmdXJJI-25" source="qCyjkw_8tzbK9dmdXJJI-29" target="qCyjkw_8tzbK9dmdXJJI-31">
          <mxGeometry relative="1" as="geometry" />
        </mxCell>
        <mxCell id="qCyjkw_8tzbK9dmdXJJI-97" style="edgeStyle=orthogonalEdgeStyle;curved=1;rounded=0;orthogonalLoop=1;jettySize=auto;html=1;exitX=1;exitY=0.5;exitDx=0;exitDy=0;entryX=0.5;entryY=0;entryDx=0;entryDy=0;" edge="1" parent="qCyjkw_8tzbK9dmdXJJI-25" source="qCyjkw_8tzbK9dmdXJJI-29" target="qCyjkw_8tzbK9dmdXJJI-96">
          <mxGeometry relative="1" as="geometry" />
        </mxCell>
        <mxCell id="qCyjkw_8tzbK9dmdXJJI-29" value="容器组" style="whiteSpace=wrap;html=1;fillColor=#B3FF66;" vertex="1" parent="qCyjkw_8tzbK9dmdXJJI-25">
          <mxGeometry x="430" y="50" width="120" height="40" as="geometry" />
        </mxCell>
        <mxCell id="qCyjkw_8tzbK9dmdXJJI-35" style="edgeStyle=orthogonalEdgeStyle;curved=1;rounded=0;orthogonalLoop=1;jettySize=auto;html=1;entryX=0.5;entryY=0;entryDx=0;entryDy=0;exitX=0.5;exitY=1;exitDx=0;exitDy=0;" edge="1" parent="qCyjkw_8tzbK9dmdXJJI-25" source="qCyjkw_8tzbK9dmdXJJI-30" target="qCyjkw_8tzbK9dmdXJJI-28">
          <mxGeometry relative="1" as="geometry">
            <Array as="points">
              <mxPoint x="240" y="150" />
              <mxPoint x="55" y="150" />
            </Array>
          </mxGeometry>
        </mxCell>
        <mxCell id="qCyjkw_8tzbK9dmdXJJI-36" style="edgeStyle=orthogonalEdgeStyle;curved=1;rounded=0;orthogonalLoop=1;jettySize=auto;html=1;entryX=0.5;entryY=0;entryDx=0;entryDy=0;" edge="1" parent="qCyjkw_8tzbK9dmdXJJI-25" source="qCyjkw_8tzbK9dmdXJJI-30" target="qCyjkw_8tzbK9dmdXJJI-27">
          <mxGeometry relative="1" as="geometry" />
        </mxCell>
        <mxCell id="qCyjkw_8tzbK9dmdXJJI-37" style="edgeStyle=orthogonalEdgeStyle;curved=1;rounded=0;orthogonalLoop=1;jettySize=auto;html=1;entryX=0.5;entryY=0;entryDx=0;entryDy=0;" edge="1" parent="qCyjkw_8tzbK9dmdXJJI-25" source="qCyjkw_8tzbK9dmdXJJI-30" target="qCyjkw_8tzbK9dmdXJJI-32">
          <mxGeometry relative="1" as="geometry" />
        </mxCell>
        <mxCell id="qCyjkw_8tzbK9dmdXJJI-38" style="edgeStyle=orthogonalEdgeStyle;curved=1;rounded=0;orthogonalLoop=1;jettySize=auto;html=1;entryX=0.433;entryY=0.025;entryDx=0;entryDy=0;entryPerimeter=0;" edge="1" parent="qCyjkw_8tzbK9dmdXJJI-25">
          <mxGeometry relative="1" as="geometry">
            <mxPoint x="235.5" y="124.5" as="sourcePoint" />
            <mxPoint x="374.4699999999998" y="155.5" as="targetPoint" />
            <Array as="points">
              <mxPoint x="235.5" y="144.5" />
              <mxPoint x="374.5" y="144.5" />
            </Array>
          </mxGeometry>
        </mxCell>
        <mxCell id="qCyjkw_8tzbK9dmdXJJI-39" value="" style="edgeStyle=orthogonalEdgeStyle;curved=1;rounded=0;orthogonalLoop=1;jettySize=auto;html=1;" edge="1" parent="qCyjkw_8tzbK9dmdXJJI-25" source="qCyjkw_8tzbK9dmdXJJI-30" target="qCyjkw_8tzbK9dmdXJJI-32">
          <mxGeometry relative="1" as="geometry" />
        </mxCell>
        <mxCell id="qCyjkw_8tzbK9dmdXJJI-40" style="edgeStyle=orthogonalEdgeStyle;curved=1;rounded=0;orthogonalLoop=1;jettySize=auto;html=1;exitX=0.5;exitY=1;exitDx=0;exitDy=0;entryX=0.5;entryY=0;entryDx=0;entryDy=0;" edge="1" parent="qCyjkw_8tzbK9dmdXJJI-25" target="qCyjkw_8tzbK9dmdXJJI-33">
          <mxGeometry relative="1" as="geometry">
            <mxPoint x="240" y="130" as="sourcePoint" />
            <mxPoint x="490" y="160" as="targetPoint" />
            <Array as="points">
              <mxPoint x="240" y="150" />
              <mxPoint x="490" y="150" />
            </Array>
          </mxGeometry>
        </mxCell>
        <mxCell id="qCyjkw_8tzbK9dmdXJJI-30" value="运行环境（JAVA、python、node等）" style="whiteSpace=wrap;html=1;fillColor=#FFFFFF;" vertex="1" parent="qCyjkw_8tzbK9dmdXJJI-25">
          <mxGeometry x="175.5" y="90" width="120" height="40" as="geometry" />
        </mxCell>
        <mxCell id="qCyjkw_8tzbK9dmdXJJI-31" value="DB服务" style="whiteSpace=wrap;html=1;" vertex="1" parent="qCyjkw_8tzbK9dmdXJJI-25">
          <mxGeometry x="780" y="100" width="120" height="40" as="geometry" />
        </mxCell>
        <mxCell id="qCyjkw_8tzbK9dmdXJJI-34" value="开发工具集（vim、curl等）" style="whiteSpace=wrap;html=1;" vertex="1" parent="qCyjkw_8tzbK9dmdXJJI-25">
          <mxGeometry x="340" y="170" width="90" height="40" as="geometry" />
        </mxCell>
        <mxCell id="qCyjkw_8tzbK9dmdXJJI-32" value="Node.js + npm" style="whiteSpace=wrap;html=1;" vertex="1" parent="qCyjkw_8tzbK9dmdXJJI-25">
          <mxGeometry x="230" y="170" width="90" height="40" as="geometry" />
        </mxCell>
        <mxCell id="qCyjkw_8tzbK9dmdXJJI-33" value="Git配置（下拉项目）" style="whiteSpace=wrap;html=1;" vertex="1" parent="qCyjkw_8tzbK9dmdXJJI-25">
          <mxGeometry x="450" y="170" width="80" height="40" as="geometry" />
        </mxCell>
        <mxCell id="qCyjkw_8tzbK9dmdXJJI-49" style="edgeStyle=orthogonalEdgeStyle;curved=1;rounded=0;orthogonalLoop=1;jettySize=auto;html=1;exitX=0.5;exitY=1;exitDx=0;exitDy=0;" edge="1" parent="qCyjkw_8tzbK9dmdXJJI-25" source="qCyjkw_8tzbK9dmdXJJI-7">
          <mxGeometry relative="1" as="geometry">
            <mxPoint x="429" y="70" as="targetPoint" />
            <mxPoint x="69" y="-200" as="sourcePoint" />
            <Array as="points">
              <mxPoint x="70" y="30" />
              <mxPoint x="429" y="30" />
            </Array>
          </mxGeometry>
        </mxCell>
        <mxCell id="qCyjkw_8tzbK9dmdXJJI-51" value="&lt;font style=&quot;font-size: 14px;&quot;&gt;mcp支持&lt;/font&gt;" style="edgeLabel;html=1;align=center;verticalAlign=middle;resizable=0;points=[];" vertex="1" connectable="0" parent="qCyjkw_8tzbK9dmdXJJI-49">
          <mxGeometry x="-0.5119" y="30" relative="1" as="geometry">
            <mxPoint as="offset" />
          </mxGeometry>
        </mxCell>
        <mxCell id="qCyjkw_8tzbK9dmdXJJI-96" value="定时任务" style="whiteSpace=wrap;html=1;" vertex="1" parent="qCyjkw_8tzbK9dmdXJJI-25">
          <mxGeometry x="990" y="100" width="120" height="40" as="geometry" />
        </mxCell>
        <mxCell id="qCyjkw_8tzbK9dmdXJJI-47" style="edgeStyle=orthogonalEdgeStyle;curved=1;rounded=0;orthogonalLoop=1;jettySize=auto;html=1;exitX=0.5;exitY=1;exitDx=0;exitDy=0;entryX=0;entryY=0.5;entryDx=0;entryDy=0;" edge="1" parent="1" source="qCyjkw_8tzbK9dmdXJJI-8" target="qCyjkw_8tzbK9dmdXJJI-29">
          <mxGeometry relative="1" as="geometry" />
        </mxCell>
        <mxCell id="qCyjkw_8tzbK9dmdXJJI-54" value="" style="swimlane;startSize=0;" vertex="1" parent="1">
          <mxGeometry x="280" y="270" width="400" height="315" as="geometry" />
        </mxCell>
        <mxCell id="qCyjkw_8tzbK9dmdXJJI-72" style="edgeStyle=orthogonalEdgeStyle;curved=1;rounded=0;orthogonalLoop=1;jettySize=auto;html=1;exitX=0.5;exitY=1;exitDx=0;exitDy=0;" edge="1" parent="qCyjkw_8tzbK9dmdXJJI-54" source="qCyjkw_8tzbK9dmdXJJI-56" target="qCyjkw_8tzbK9dmdXJJI-57">
          <mxGeometry relative="1" as="geometry" />
        </mxCell>
        <mxCell id="qCyjkw_8tzbK9dmdXJJI-56" value="镜像版本评估" style="whiteSpace=wrap;html=1;" vertex="1" parent="qCyjkw_8tzbK9dmdXJJI-54">
          <mxGeometry x="160" y="100" width="100" height="37" as="geometry" />
        </mxCell>
        <mxCell id="qCyjkw_8tzbK9dmdXJJI-57" value="镜像仓库：筛选镜像" style="whiteSpace=wrap;html=1;" vertex="1" parent="qCyjkw_8tzbK9dmdXJJI-54">
          <mxGeometry x="160" y="163" width="100" height="37" as="geometry" />
        </mxCell>
        <mxCell id="qCyjkw_8tzbK9dmdXJJI-71" style="edgeStyle=orthogonalEdgeStyle;curved=1;rounded=0;orthogonalLoop=1;jettySize=auto;html=1;exitX=0.5;exitY=1;exitDx=0;exitDy=0;entryX=0.5;entryY=0;entryDx=0;entryDy=0;" edge="1" parent="qCyjkw_8tzbK9dmdXJJI-54" source="qCyjkw_8tzbK9dmdXJJI-61" target="qCyjkw_8tzbK9dmdXJJI-56">
          <mxGeometry relative="1" as="geometry" />
        </mxCell>
        <mxCell id="qCyjkw_8tzbK9dmdXJJI-61" value="AI agent" style="whiteSpace=wrap;html=1;fillColor=#B3FF66;" vertex="1" parent="qCyjkw_8tzbK9dmdXJJI-54">
          <mxGeometry x="160" y="40" width="100" height="37" as="geometry" />
        </mxCell>
        <mxCell id="qCyjkw_8tzbK9dmdXJJI-75" style="edgeStyle=orthogonalEdgeStyle;curved=1;rounded=0;orthogonalLoop=1;jettySize=auto;html=1;exitX=0.5;exitY=1;exitDx=0;exitDy=0;entryX=0.5;entryY=0;entryDx=0;entryDy=0;" edge="1" parent="qCyjkw_8tzbK9dmdXJJI-54" source="qCyjkw_8tzbK9dmdXJJI-64" target="qCyjkw_8tzbK9dmdXJJI-67">
          <mxGeometry relative="1" as="geometry" />
        </mxCell>
        <mxCell id="qCyjkw_8tzbK9dmdXJJI-64" value="日志监控" style="whiteSpace=wrap;html=1;" vertex="1" parent="qCyjkw_8tzbK9dmdXJJI-54">
          <mxGeometry x="285" y="100" width="100" height="40" as="geometry" />
        </mxCell>
        <mxCell id="qCyjkw_8tzbK9dmdXJJI-67" value="健康巡检" style="whiteSpace=wrap;html=1;" vertex="1" parent="qCyjkw_8tzbK9dmdXJJI-54">
          <mxGeometry x="285" y="161.5" width="100" height="40" as="geometry" />
        </mxCell>
        <mxCell id="qCyjkw_8tzbK9dmdXJJI-74" style="edgeStyle=orthogonalEdgeStyle;curved=1;rounded=0;orthogonalLoop=1;jettySize=auto;html=1;exitX=0.5;exitY=1;exitDx=0;exitDy=0;entryX=0.5;entryY=0;entryDx=0;entryDy=0;" edge="1" parent="qCyjkw_8tzbK9dmdXJJI-54" source="qCyjkw_8tzbK9dmdXJJI-62" target="qCyjkw_8tzbK9dmdXJJI-64">
          <mxGeometry relative="1" as="geometry" />
        </mxCell>
        <mxCell id="qCyjkw_8tzbK9dmdXJJI-62" value="环境健康检查" style="whiteSpace=wrap;html=1;" vertex="1" parent="qCyjkw_8tzbK9dmdXJJI-54">
          <mxGeometry x="285" y="40" width="100" height="40" as="geometry" />
        </mxCell>
        <mxCell id="qCyjkw_8tzbK9dmdXJJI-66" value="消息下发" style="whiteSpace=wrap;html=1;" vertex="1" parent="qCyjkw_8tzbK9dmdXJJI-54">
          <mxGeometry x="20" y="40" width="100" height="40" as="geometry" />
        </mxCell>
        <mxCell id="qCyjkw_8tzbK9dmdXJJI-81" value="自动化部署" style="whiteSpace=wrap;html=1;fillColor=#B3FF66;" vertex="1" parent="qCyjkw_8tzbK9dmdXJJI-54">
          <mxGeometry x="20" y="160" width="100" height="40" as="geometry" />
        </mxCell>
        <mxCell id="qCyjkw_8tzbK9dmdXJJI-55" value="&lt;font style=&quot;font-size: 14px;&quot;&gt;&lt;b&gt;自动化管理系统&lt;/b&gt;&lt;/font&gt;" style="text;html=1;align=center;verticalAlign=middle;resizable=0;points=[];autosize=1;strokeColor=none;fillColor=none;" vertex="1" parent="qCyjkw_8tzbK9dmdXJJI-54">
          <mxGeometry x="125" width="120" height="30" as="geometry" />
        </mxCell>
        <mxCell id="qCyjkw_8tzbK9dmdXJJI-73" style="edgeStyle=orthogonalEdgeStyle;curved=1;rounded=0;orthogonalLoop=1;jettySize=auto;html=1;exitX=0.5;exitY=1;exitDx=0;exitDy=0;entryX=0.5;entryY=0;entryDx=0;entryDy=0;" edge="1" parent="1" source="qCyjkw_8tzbK9dmdXJJI-57" target="qCyjkw_8tzbK9dmdXJJI-29">
          <mxGeometry relative="1" as="geometry" />
        </mxCell>
        <mxCell id="qCyjkw_8tzbK9dmdXJJI-79" style="edgeStyle=orthogonalEdgeStyle;curved=1;rounded=0;orthogonalLoop=1;jettySize=auto;html=1;" edge="1" parent="1" source="qCyjkw_8tzbK9dmdXJJI-66" target="qCyjkw_8tzbK9dmdXJJI-76">
          <mxGeometry relative="1" as="geometry" />
        </mxCell>
        <mxCell id="qCyjkw_8tzbK9dmdXJJI-82" value="" style="swimlane;startSize=0;" vertex="1" parent="1">
          <mxGeometry x="700" y="270" width="330" height="310" as="geometry" />
        </mxCell>
        <mxCell id="qCyjkw_8tzbK9dmdXJJI-86" style="edgeStyle=orthogonalEdgeStyle;curved=1;rounded=0;orthogonalLoop=1;jettySize=auto;html=1;" edge="1" parent="qCyjkw_8tzbK9dmdXJJI-82" source="qCyjkw_8tzbK9dmdXJJI-84" target="qCyjkw_8tzbK9dmdXJJI-85">
          <mxGeometry relative="1" as="geometry" />
        </mxCell>
        <mxCell id="qCyjkw_8tzbK9dmdXJJI-84" value="版本控制" style="whiteSpace=wrap;html=1;" vertex="1" parent="qCyjkw_8tzbK9dmdXJJI-82">
          <mxGeometry x="27" y="53" width="100" height="37" as="geometry" />
        </mxCell>
        <mxCell id="qCyjkw_8tzbK9dmdXJJI-85" value="镜像仓库管理" style="whiteSpace=wrap;html=1;fillColor=#B3FF66;" vertex="1" parent="qCyjkw_8tzbK9dmdXJJI-82">
          <mxGeometry x="27" y="141.5" width="100" height="37" as="geometry" />
        </mxCell>
        <mxCell id="qCyjkw_8tzbK9dmdXJJI-87" value="培训文档" style="whiteSpace=wrap;html=1;" vertex="1" parent="qCyjkw_8tzbK9dmdXJJI-82">
          <mxGeometry x="190" y="141.5" width="100" height="37" as="geometry" />
        </mxCell>
        <mxCell id="qCyjkw_8tzbK9dmdXJJI-94" style="edgeStyle=orthogonalEdgeStyle;curved=1;rounded=0;orthogonalLoop=1;jettySize=auto;html=1;entryX=0.75;entryY=0;entryDx=0;entryDy=0;" edge="1" parent="qCyjkw_8tzbK9dmdXJJI-82" source="qCyjkw_8tzbK9dmdXJJI-92" target="qCyjkw_8tzbK9dmdXJJI-87">
          <mxGeometry relative="1" as="geometry" />
        </mxCell>
        <mxCell id="qCyjkw_8tzbK9dmdXJJI-92" value="技术支持" style="whiteSpace=wrap;html=1;" vertex="1" parent="qCyjkw_8tzbK9dmdXJJI-82">
          <mxGeometry x="220" y="40" width="100" height="37" as="geometry" />
        </mxCell>
        <mxCell id="qCyjkw_8tzbK9dmdXJJI-99" value="&lt;font style=&quot;font-size: 14px;&quot;&gt;&lt;b&gt;团队协作&lt;/b&gt;&lt;/font&gt;" style="text;html=1;align=center;verticalAlign=middle;resizable=0;points=[];autosize=1;strokeColor=none;fillColor=none;" vertex="1" parent="qCyjkw_8tzbK9dmdXJJI-82">
          <mxGeometry x="120" y="10" width="80" height="30" as="geometry" />
        </mxCell>
        <mxCell id="qCyjkw_8tzbK9dmdXJJI-90" style="edgeStyle=orthogonalEdgeStyle;curved=1;rounded=0;orthogonalLoop=1;jettySize=auto;html=1;exitX=0.5;exitY=1;exitDx=0;exitDy=0;" edge="1" parent="1" source="qCyjkw_8tzbK9dmdXJJI-88" target="qCyjkw_8tzbK9dmdXJJI-87">
          <mxGeometry relative="1" as="geometry" />
        </mxCell>
        <mxCell id="qCyjkw_8tzbK9dmdXJJI-93" style="edgeStyle=orthogonalEdgeStyle;curved=1;rounded=0;orthogonalLoop=1;jettySize=auto;html=1;entryX=0.5;entryY=0;entryDx=0;entryDy=0;" edge="1" parent="1" source="qCyjkw_8tzbK9dmdXJJI-89" target="qCyjkw_8tzbK9dmdXJJI-92">
          <mxGeometry relative="1" as="geometry" />
        </mxCell>
        <mxCell id="qCyjkw_8tzbK9dmdXJJI-101" style="edgeStyle=orthogonalEdgeStyle;curved=1;rounded=0;orthogonalLoop=1;jettySize=auto;html=1;entryX=0.5;entryY=0;entryDx=0;entryDy=0;" edge="1" parent="1" source="qCyjkw_8tzbK9dmdXJJI-100" target="qCyjkw_8tzbK9dmdXJJI-8">
          <mxGeometry relative="1" as="geometry">
            <Array as="points">
              <mxPoint x="-70" y="415" />
            </Array>
          </mxGeometry>
        </mxCell>
      </root>
    </mxGraphModel>
  </diagram>
</mxfile>
